<?xml version="1.0" encoding="utf-8"?>
<!-- Generator: Adobe Illustrator 21.0.0, SVG Export Plug-In . SVG Version: 6.00 Build 0)  -->
<svg version="1.1" id="Calque_1" xmlns="http://www.w3.org/2000/svg" xmlns:xlink="http://www.w3.org/1999/xlink" x="0px" y="0px"
	 viewBox="0 0 133.2 175.7" style="enable-background:new 0 0 133.2 175.7;" xml:space="preserve">
<style type="text/css">
	.st0{fill:#E89138;}
	.st1{fill:#FFFFFF;}
</style>
<g>
	<path class="st0" d="M133.1,43.9c-0.5-1.2-1.1-2.4-1.7-3.6C120.8,19.7,100.8,4.9,77,1.6C97.1,6.9,112,25.2,112,47
		c0,16.5-8.5,31.1-21.5,39.5c0.1,0.1,0.1,0.1,0.2,0.2c18.4-6.6,33.4-20.4,41.5-38c0.3-0.6,0.5-1.1,0.7-1.7c0.2-0.6,0.3-1.3,0.3-1.9
		C133.2,44.6,133.2,44.2,133.1,43.9z"/>
	<path class="st0" d="M52.2,175.7h52.7v-46.3h-0.2C101.2,153.1,79.7,171.9,52.2,175.7z"/>
	<path class="st1" d="M90.5,86.5C103.4,78.1,112,63.5,112,47C112,25.2,97.1,6.9,77,1.6c-3.3-0.5-6.7-0.7-10.1-0.7
		c-7,0-13.7,1-20,2.8C29.9,10.8,18.1,27.5,18.1,47c0,11.1,3.8,21.3,10.3,29.3c1,1.1,2.6,3.4,4.3,6.2c2.6,4.4,5.1,10.3,5.1,15.5
		c0,14.2-11.5,25.6-25.6,25.6c-4.4,0-8.5-1.1-12.1-3c0,0.8-0.1,1.6-0.1,2.4c0,29.1,23.6,52.7,52.6,52.7c2.9,0,5.8-0.3,8.6-0.7
		c22.9-3.8,40.8-22.3,43.6-45.6c0.3-2.1,0.4-4.2,0.4-6.4c0-14.1-5.6-26.9-14.6-36.4C90.6,86.6,90.6,86.5,90.5,86.5z M71.4,80.6
		c-13.5,0-25.1-7.8-30.7-19.2c5.5-4.4,19.6-12.5,37.6-15.6c2.5-0.4-5.5-10.3-6.4-8c-0.1,0.4,0.3,4.1,0.3,6.9
		c-11.9,1-27.8,4.7-34.3,8.4c-0.4-2.2-0.7-4.4-0.7-6.7c0-18.9,15.3-34.2,34.1-34.2c18.9,0,34.1,15.3,34.1,34.2
		C105.6,65.3,90.3,80.6,71.4,80.6z"/>
</g>
</svg>
